<svg width="256" height="256" viewBox="0 0 256 256" fill="none" xmlns="http://www.w3.org/2000/svg">
<path fill-rule="evenodd" clip-rule="evenodd" d="M239.268 216.146C245.846 222.746 245.846 233.448 239.268 240.049C232.689 246.65 222.024 246.65 215.445 240.049L128 152.304L40.5546 240.049C33.9762 246.65 23.3106 246.65 16.7323 240.049C10.1539 233.448 10.1539 222.746 16.7323 216.146L104.178 128.401L15.9338 39.8545C9.35541 33.2536 9.35541 22.5515 15.9338 15.9507C22.5121 9.34978 33.1777 9.34978 39.756 15.9507L128 104.497L216.244 15.9507C222.822 9.34978 233.488 9.34978 240.066 15.9507C246.645 22.5515 246.645 33.2536 240.066 39.8545L151.822 128.401L239.268 216.146Z" fill="currentColor"/>
</svg>
